<svg xmlns="http://www.w3.org/2000/svg" width="960" height="437" viewBox="0 0 960 437" role="img" aria-labelledby="title"><title id="title">1. Agent → Renderer: Supply verified JSON — Use real commands, paths and capabilities.
2. Renderer → Agent: Return a preview — Keep referenced assets with the Markdown.
3. Agent → Renderer: Render final files [Requires: Reviewed configuration]</title><path d="M248 93V403" stroke="#dedfe5" stroke-width="1" stroke-dasharray="3 5" fill="none"/><path d="M712 93V403" stroke="#dedfe5" stroke-width="1" stroke-dasharray="3 5" fill="none"/><rect x="24" y="16" width="448" height="70" rx="5" fill="#f6f8fa" stroke="#dedfe5"/><text x="28" y="46" font-family="-apple-system, BlinkMacSystemFont, &apos;Segoe UI&apos;, Arial, sans-serif" font-size="18" font-weight="600" fill="#202126" text-anchor="start"><tspan x="28" dy="0">Agent</tspan></text><text x="28" y="69" font-family="-apple-system, BlinkMacSystemFont, &apos;Segoe UI&apos;, Arial, sans-serif" font-size="11" font-weight="400" fill="#666b76" text-anchor="start"><tspan x="28" dy="0">Inspects repository facts</tspan></text><rect x="488" y="16" width="448" height="70" rx="5" fill="#f6f8fa" stroke="#dedfe5"/><text x="492" y="46" font-family="-apple-system, BlinkMacSystemFont, &apos;Segoe UI&apos;, Arial, sans-serif" font-size="18" font-weight="600" fill="#202126" text-anchor="start"><tspan x="492" dy="0">Renderer</tspan></text><text x="492" y="69" font-family="-apple-system, BlinkMacSystemFont, &apos;Segoe UI&apos;, Arial, sans-serif" font-size="11" font-weight="400" fill="#666b76" text-anchor="start"><tspan x="492" dy="0">Generates local output</tspan></text><rect x="255" y="112" width="450" height="87" rx="3" fill="#fafafa" stroke="none"/><text x="263" y="133" font-family="-apple-system, BlinkMacSystemFont, &apos;Segoe UI&apos;, Arial, sans-serif" font-size="15" font-weight="600" fill="#202126" text-anchor="start"><tspan x="263" dy="0">Supply verified JSON</tspan></text><text x="263" y="176" font-family="-apple-system, BlinkMacSystemFont, &apos;Segoe UI&apos;, Arial, sans-serif" font-size="15" font-weight="400" fill="#666b76" text-anchor="start"><tspan x="263" dy="0">Use real commands, paths and capabilities.</tspan></text><path d="M248 150H712" stroke="#202020" stroke-width="1.4" fill="none"/><path d="M708 146L712 150L708 154" fill="none" stroke="#202020" stroke-width="1.25" stroke-linecap="round" stroke-linejoin="round"/><circle cx="248" cy="150" r="3" fill="#fafafa" stroke="#202020"/><text x="239" y="133" font-family="&apos;SFMono-Regular&apos;, Consolas, &apos;Liberation Mono&apos;, monospace" font-size="11" font-weight="400" fill="#666b76" text-anchor="start"><tspan x="239" dy="0">01</tspan></text><rect x="255" y="214" width="450" height="87" rx="3" fill="#fafafa" stroke="none"/><text x="263" y="235" font-family="-apple-system, BlinkMacSystemFont, &apos;Segoe UI&apos;, Arial, sans-serif" font-size="15" font-weight="600" fill="#202126" text-anchor="start"><tspan x="263" dy="0">Return a preview</tspan></text><text x="263" y="278" font-family="-apple-system, BlinkMacSystemFont, &apos;Segoe UI&apos;, Arial, sans-serif" font-size="15" font-weight="400" fill="#666b76" text-anchor="start"><tspan x="263" dy="0">Keep referenced assets with the Markdown.</tspan></text><path d="M712 252H248" stroke="#202020" stroke-width="1.4" fill="none" stroke-dasharray="4 4"/><path d="M252 248L248 252L252 256" fill="none" stroke="#202020" stroke-width="1.25" stroke-linecap="round" stroke-linejoin="round"/><circle cx="712" cy="252" r="3" fill="#fafafa" stroke="#202020"/><text x="239" y="235" font-family="&apos;SFMono-Regular&apos;, Consolas, &apos;Liberation Mono&apos;, monospace" font-size="11" font-weight="400" fill="#666b76" text-anchor="start"><tspan x="239" dy="0">02</tspan></text><rect x="255" y="316" width="450" height="84" rx="3" fill="#fafafa" stroke="none"/><text x="263" y="337" font-family="-apple-system, BlinkMacSystemFont, &apos;Segoe UI&apos;, Arial, sans-serif" font-size="15" font-weight="600" fill="#202126" text-anchor="start"><tspan x="263" dy="0">Render final files</tspan></text><text x="286" y="377" font-family="-apple-system, BlinkMacSystemFont, &apos;Segoe UI&apos;, Arial, sans-serif" font-size="11" font-weight="400" fill="#202020" text-anchor="start"><tspan x="286" dy="0">Requires: Reviewed configuration</tspan></text><g transform="translate(263 364) scale(0.75)" fill="none" stroke="#202020" stroke-width="1.3" stroke-linecap="round" stroke-linejoin="round"><path d="M6 8V6a4 4 0 0 1 8 0v2M4 8h12v10H4zM10 12v3"/></g><path d="M248 354H712" stroke="#202020" stroke-width="1.4" fill="none"/><path d="M708 350L712 354L708 358" fill="none" stroke="#202020" stroke-width="1.25" stroke-linecap="round" stroke-linejoin="round"/><circle cx="248" cy="354" r="3" fill="#fafafa" stroke="#202020"/><text x="239" y="337" font-family="&apos;SFMono-Regular&apos;, Consolas, &apos;Liberation Mono&apos;, monospace" font-size="11" font-weight="400" fill="#666b76" text-anchor="start"><tspan x="239" dy="0">03</tspan></text></svg>
